# xmcd
#
# Track frame offsets: 
#        150
#        22519
#        40129
#        67873
#        118363
#        134083
#        162993
#        196750
#
# Disc length: 3125 seconds
#
# Revision: 0
# Processed by: cddbd v1.5.2PL0 Copyright (c) Steve Scherf et al.
# Submitted via: ExactAudioCopy v0.95b4
#
DISCID=650c3308
DTITLE=Van Der Graaf Generator - Reflection
DYEAR=1975
DGENRE=Blues
TTITLE0=Afterwards
TTITLE1=The Boat Of Millions Of Years
TTITLE2=Whatever Would Robert Have Said
TTITLE3=Lost
TTITLE4=Necromancer
TTITLE5=Refugees
TTITLE6=Darkness
TTITLE7=Killer
EXTD=
EXTT0=
EXTT1=
EXTT2=
EXTT3=
EXTT4=
EXTT5=
EXTT6=
EXTT7=
PLAYORDER=
